<svg xmlns="http://www.w3.org/2000/svg" viewBox="0 0 32 32"><g transform="translate(0 -1020.362)"><circle cx="16" cy="1036.362" r="16" fill="#ffa40b" fill-rule="evenodd"/><path style="line-height:normal;text-indent:0;text-align:start;text-decoration-line:none;text-decoration-style:solid;text-decoration-color:#000;text-transform:none;block-progression:tb;isolation:auto;mix-blend-mode:normal" fill="#ff7712" d="M20.604 31.309a16 16 0 0 0 1.193-.397 16 16 0 0 0 1.46-.652 16 16 0 0 0 1.388-.797 16 16 0 0 0 1.3-.93 16 16 0 0 0 1.201-1.054 16 16 0 0 0 1.092-1.172 16 16 0 0 0 .967-1.272 16 16 0 0 0 .318-.52L20 14.993v-.002h-.035l-1.381-1.38a.866.866 0 0 0 .184-.538.866.866 0 0 0-.182-.527l.98.98v.002a.5.5 0 0 0 .508.508l9.842 9.84a16 16 0 0 0 .125-.205 16 16 0 0 0 .176-.365l-9.662-9.662a.5.5 0 0 0 .011-.116l9.694 9.692a16 16 0 0 0 .476-.989 16 16 0 0 0 .55-1.501 16 16 0 0 0 .396-1.551 16 16 0 0 0 .093-.621L22.11 8.89a6.537 6.537 0 0 0-4.634-1.922.5.5 0 0 0-.051 0 .5.5 0 0 0-.457.508.5.5 0 0 0 .508.492l.804.804a4.81 4.81 0 0 0-.804-.072.5.5 0 0 0-.051 0 .5.5 0 0 0-.457.508.5.5 0 0 0 .508.492l.875.875c-.086-.025-.166-.062-.254-.08a3.078 3.078 0 0 0-.621-.062.5.5 0 0 0-.051 0 .5.5 0 0 0-.457.507.5.5 0 0 0 .508.493l.95.95a.866.866 0 0 0-.525-.177.866.866 0 0 0-.533.186l-1.396-1.397v-.002H12.5v.002a.497.497 0 0 0-.354.149.498.498 0 0 0-.107.156v.002a.501.501 0 0 0-.039.193v11.002c0 .068.014.134.04.193v.002c.024.06.062.112.106.157v.002l8.458 8.457zm-2.231-23.26c.07.011.143.017.213.031l.014.014c-.076-.016-.15-.033-.227-.045z" color="#000" font-family="sans-serif" font-weight="400" transform="translate(0 1020.362)"/><path style="line-height:normal;text-indent:0;text-align:start;text-decoration-line:none;text-decoration-style:solid;text-decoration-color:#000;text-transform:none;block-progression:tb;isolation:auto;mix-blend-mode:normal" fill="#fff" d="M9.424-.016a.5.5 0 0 0-.457.508.5.5 0 0 0 .508.492 5.549 5.549 0 0 1 5.556 5.557.5.5 0 1 0 1 0A6.564 6.564 0 0 0 9.475-.016a.5.5 0 0 0-.051 0zm0 1.733a.5.5 0 0 0-.457.508.5.5 0 0 0 .508.492 3.816 3.816 0 0 1 3.824 3.824.5.5 0 1 0 1 0 4.831 4.831 0 0 0-4.824-4.824.5.5 0 0 0-.051 0zm0 1.732a.5.5 0 0 0-.457.508.5.5 0 0 0 .508.492c1.162 0 2.091.932 2.091 2.094a.5.5 0 1 0 1 0 3.1 3.1 0 0 0-3.091-3.094.5.5 0 0 0-.051 0zM4.5 4.014v.002a.5.5 0 0 0-.5.5v11a.5.5 0 0 0 .5.5h7a.5.5 0 0 0 .5-.5V8.01h-1v7.006H5v-10h2.97V4.014H4.5zm5.4 1.209a.866.866 0 0 0-.865.865.866.866 0 0 0 .865.867.866.866 0 0 0 .868-.867.866.866 0 0 0-.868-.865Z" color="#000" font-family="sans-serif" font-weight="400" overflow="visible" transform="translate(8 1027.347)"/></g></svg>